P3
8 8
255
165 165 165 169 169 169 89 89 89 158 158 158 249 249 249 211 211 211 124 124 124 2 2 2 110 110 110 92 92 92 71 71 71 84 84 84 47 47 47 92 92 92 65 65 65 109 109 109 243 243 243 121 121 121 204 204 204 240 240 240 92 92 92 40 40 40 28 28 28 225 225 225 63 63 63 164 164 164 150 150 150 237 237 237 93 93 93 255 255 255 215 215 215 219 219 219 67 67 67 215 215 215 7 7 7 148 148 148 53 53 53 66 66 66 121 121 121 250 250 250 98 98 98 178 178 178 14 14 14 183 183 183 78 78 78 212 212 212 70 70 70 52 52 52 119 119 119 100 100 100 16 16 16 184 184 184 104 104 104 91 91 91 163 163 163 104 104 104 23 23 23 237 237 237 12 12 12 127 127 127 41 41 41 199 199 199 57 57 57 250 250 250 