P3
8 8
255
235 
235 
235 
2 
2 
2 
179 
179 
179 
17 
17 
17 
146 
146 
146 
103 
103 
103 
38 
38 
38 
39 
39 
39 
103 103 103 27 27 27 70 70 70 135 135 135 41 41 41 84 84 84 229 229 229 118 118 118 149 149 149 160 160 160 143 143 143 153 153 153 106 106 106 78 78 78 249 249 249 116 116 116 214 214 214 134 134 134 216 216 216 243 243 243 129 129 129 207 207 207 32 32 32 177 177 177 203 203 203 167 167 167 52 52 52 12 12 12 24 24 24 83 83 83 20 20 20 245 245 245 242 242 242 147 147 147 102 102 102 43 43 43 225 225 225 87 87 87 197 197 197 134 134 134 249 249 249 236 236 236 160 160 160 249 249 249 214 214 214 105 105 105 209 209 209 208 208 208 115 115 115 184 184 184 122 122 122 7 7 7 28 28 28 36 36 36 183 183 183 43 43 43 