P3
8 8
255
20 20 20 107 107 107 101 101 101 171 171 171 119 119 119 179 179 179 183 183 183 220 220 220 
98 98 98 61 61 61 178 178 178 126 126 126 168 168 168 143 143 143 198 198 198 139 139 139 
49 49 49 213 213 213 135 135 135 70 70 70 160 160 160 232 232 232 135 135 135 114 114 114 
159 159 159 83 83 83 168 168 168 58 58 58 207 207 207 122 122 122 186 186 186 77 77 77 
76 76 76 143 143 143 230 230 230 235 235 235 72 72 72 146 146 146 94 94 94 114 114 114 
138 138 138 132 132 132 230 230 230 211 211 211 100 100 100 97 97 97 116 116 116 37 37 37 
165 165 165 236 236 236 112 112 112 129 129 129 115 115 115 226 226 226 32 32 32 47 47 47 
225 225 225 167 167 167 182 182 182 67 67 67 201 201 201 117 117 117 123 123 123 0 0 0 
